<svg width="40" height="40" viewBox="0 0 40 40" fill="none" xmlns="http://www.w3.org/2000/svg">
<g clip-path="url(#clip0_106_1073)">
<path d="M9.13526 3.32013C8.98768 3.13028 8.80139 2.97401 8.58877 2.86169C8.37615 2.74937 8.14206 2.68358 7.90206 2.66868C7.66206 2.65379 7.42163 2.69013 7.19675 2.77529C6.97187 2.86045 6.76769 2.99249 6.59776 3.16263L4.01276 5.75013C2.80526 6.96013 2.36026 8.67263 2.88776 10.1751C5.07959 16.3929 8.64065 22.0386 13.3078 26.6951C17.9642 31.3622 23.61 34.9233 29.8278 37.1151C31.3303 37.6426 33.0428 37.1976 34.2528 35.9901L36.8378 33.4051C37.0079 33.2352 37.1399 33.031 37.2251 32.8061C37.3103 32.5813 37.3466 32.3408 37.3317 32.1008C37.3168 31.8608 37.251 31.6267 37.1387 31.4141C37.0264 31.2015 36.8701 31.0152 36.6803 30.8676L30.9128 26.3826C30.7098 26.2256 30.4739 26.1167 30.2227 26.0638C29.9716 26.011 29.7118 26.0157 29.4628 26.0776L23.9878 27.4451C23.2569 27.6265 22.4916 27.6162 21.7659 27.4152C21.0402 27.2142 20.3786 26.8292 19.8453 26.2976L13.7053 20.1551C13.1732 19.622 12.7878 18.9606 12.5863 18.2349C12.3849 17.5092 12.3742 16.7437 12.5553 16.0126L13.9253 10.5376C13.9872 10.2886 13.9919 10.0288 13.9391 9.77765C13.8862 9.52653 13.7772 9.29063 13.6203 9.08763L9.13526 3.32013ZM4.71026 1.27763C5.14775 0.840001 5.67333 0.500453 6.25211 0.28153C6.83089 0.0626074 7.44962 -0.030681 8.06722 0.00785974C8.68481 0.0464004 9.28714 0.215888 9.83422 0.505069C10.3813 0.79425 10.8606 1.19651 11.2403 1.68513L15.7253 7.45013C16.5478 8.50763 16.8378 9.88513 16.5128 11.1851L15.1453 16.6601C15.0751 16.9437 15.0791 17.2406 15.1571 17.5222C15.235 17.8038 15.3842 18.0605 15.5903 18.2676L21.7328 24.4101C21.9401 24.6166 22.1973 24.766 22.4793 24.844C22.7614 24.922 23.0588 24.9258 23.3428 24.8551L28.8153 23.4876C29.4569 23.3282 30.1263 23.3162 30.7732 23.4526C31.4201 23.589 32.0277 23.8702 32.5503 24.2751L38.3153 28.7601C40.3878 30.3726 40.5778 33.4351 38.7228 35.2876L36.1378 37.8726C34.2878 39.7226 31.5228 40.5351 28.9453 39.6276C22.3469 37.3091 16.3566 33.532 11.4203 28.5776C6.46619 23.642 2.68914 17.6526 0.370262 11.0551C-0.534738 8.48013 0.277762 5.71263 2.12776 3.86263L4.71026 1.27763Z" fill="#FF6245"/>
</g>
<defs>
<clipPath id="clip0_106_1073">
<rect width="40" height="40" fill="white"/>
</clipPath>
</defs>
</svg>
