<svg width="18" height="19" viewBox="0 0 18 19" fill="none" xmlns="http://www.w3.org/2000/svg">
<path d="M10.9104 4.55809C11.6586 4.70378 12.3462 5.06898 12.8852 5.60696C13.4242 6.14494 13.7901 6.83121 13.9361 7.57795M10.9104 1.5C12.4648 1.67235 13.9143 2.3671 15.0209 3.47018C16.1275 4.57326 16.8254 6.01909 17 7.5703M16.234 13.6712V15.9648C16.2349 16.1777 16.1912 16.3884 16.1057 16.5835C16.0203 16.7786 15.8949 16.9537 15.7377 17.0977C15.5805 17.2416 15.3949 17.3512 15.1928 17.4194C14.9908 17.4876 14.7766 17.513 14.5642 17.4938C12.2071 17.2382 9.94297 16.4343 7.95371 15.1467C6.10295 13.9729 4.53384 12.4068 3.35779 10.5596C2.06326 8.5651 1.25765 6.29431 1.00622 3.93118C0.987076 3.71976 1.01225 3.50669 1.08014 3.30551C1.14802 3.10434 1.25713 2.91948 1.40052 2.7627C1.54391 2.60592 1.71843 2.48066 1.91298 2.39489C2.10753 2.30912 2.31785 2.26472 2.53053 2.26452H4.82849C5.20022 2.26087 5.56061 2.39226 5.84247 2.63419C6.12433 2.87613 6.30843 3.21211 6.36046 3.5795C6.45745 4.31349 6.63732 5.03418 6.89665 5.72781C6.99971 6.00145 7.02201 6.29884 6.96092 6.58474C6.89983 6.87065 6.7579 7.13308 6.55195 7.34095L5.57915 8.31189C6.66958 10.2259 8.25739 11.8107 10.1751 12.899L11.1479 11.9281C11.3561 11.7225 11.6191 11.5809 11.9055 11.5199C12.192 11.4589 12.4899 11.4812 12.7641 11.584C13.4591 11.8429 14.1811 12.0224 14.9165 12.1192C15.2886 12.1716 15.6284 12.3587 15.8713 12.6448C16.1143 12.931 16.2433 13.2962 16.234 13.6712Z" stroke="#FF5A3C" stroke-width="2" stroke-linecap="round" stroke-linejoin="round"/>
</svg>
