<svg width="40" height="40" viewBox="0 0 40 40" fill="none" xmlns="http://www.w3.org/2000/svg">
<path d="M34.1275 2.5C33.6828 2.49991 33.2426 2.58902 32.8329 2.76208C32.4232 2.93513 32.0525 3.18861 31.7425 3.5075L31.2512 4.01375L30.755 3.5075C30.4451 3.18847 30.0743 2.93486 29.6647 2.76168C29.255 2.5885 28.8148 2.49927 28.37 2.49927C27.9252 2.49927 27.485 2.5885 27.0753 2.76168C26.6657 2.93486 26.2949 3.18847 25.985 3.5075C25.3527 4.16037 24.9991 5.03362 24.9991 5.9425C24.9991 6.85139 25.3527 7.72463 25.985 8.3775L31.2512 13.75L36.5125 8.3775C37.1448 7.72463 37.4984 6.85139 37.4984 5.9425C37.4984 5.03362 37.1448 4.16037 36.5125 3.5075C36.2025 3.18861 35.8318 2.93513 35.4221 2.76208C35.0124 2.58902 34.5722 2.49991 34.1275 2.5ZM29.7775 22.5H18.8538L14.83 7.45625C14.4748 6.18904 13.6342 5.11299 12.4907 4.46151C11.3472 3.81002 9.993 3.63564 8.72176 3.9762C7.45053 4.31675 6.36482 5.14477 5.70014 6.28065C5.03547 7.41653 4.84543 8.76866 5.17125 10.0438L10.6813 30.6462C10.8235 31.178 11.1374 31.6479 11.574 31.9831C12.0107 32.3183 12.5458 32.5 13.0963 32.5H23.75V35H5V37.5H23.75C24.413 37.5 25.0489 37.2366 25.5178 36.7678C25.9866 36.2989 26.25 35.663 26.25 35V32.5H30C30.6985 32.499 31.3891 32.3519 32.0273 32.0681C32.6655 31.7843 33.2373 31.3701 33.7059 30.8521C34.1744 30.3341 34.5294 29.7237 34.748 29.0603C34.9666 28.3969 35.0439 27.6951 34.975 27C34.8151 25.7414 34.1962 24.5862 33.2371 23.7558C32.2779 22.9253 31.046 22.4782 29.7775 22.5ZM30 30H13.0975L7.585 9.3975C7.50005 9.08036 7.4784 8.74959 7.52128 8.42408C7.56417 8.09857 7.67074 7.7847 7.83493 7.50037C7.99911 7.21605 8.21769 6.96685 8.47818 6.76701C8.73868 6.56716 9.03598 6.42058 9.35313 6.33563C9.67027 6.25068 10.001 6.22903 10.3265 6.27191C10.6521 6.31479 10.9659 6.42137 11.2503 6.58555C11.5346 6.74974 11.7838 6.96832 11.9836 7.22881C12.1835 7.48931 12.3301 7.78661 12.415 8.10375L16.9338 25H30C30.663 25 31.2989 25.2634 31.7678 25.7322C32.2366 26.2011 32.5 26.837 32.5 27.5C32.5 28.163 32.2366 28.7989 31.7678 29.2678C31.2989 29.7366 30.663 30 30 30Z" fill="#FF6245"/>
</svg>
