<svg width="24" height="25" viewBox="0 0 24 25" fill="none" xmlns="http://www.w3.org/2000/svg">
<g clip-path="url(#clip0_106_1245)">
<path d="M10.4998 17.4998C10.2369 17.5 9.97646 17.4484 9.73349 17.3478C9.49051 17.2472 9.26975 17.0998 9.08384 16.9138L5.29984 13.2148C5.11021 13.0291 5.0021 12.7758 4.99928 12.5104C4.99647 12.245 5.09919 11.9894 5.28484 11.7998C5.47049 11.6102 5.72387 11.5021 5.98923 11.4992C6.2546 11.4964 6.51021 11.5991 6.69984 11.7848L10.4928 15.4918L17.2988 8.7918C17.4908 8.62292 17.7401 8.53397 17.9956 8.54321C18.251 8.55245 18.4933 8.65919 18.6725 8.84148C18.8517 9.02378 18.9543 9.2678 18.9592 9.5234C18.9641 9.779 18.871 10.0268 18.6988 10.2158L11.9058 16.9228C11.7209 17.1067 11.5016 17.2523 11.2603 17.3513C11.0191 17.4504 10.7606 17.5008 10.4998 17.4998ZM23.9998 19.4998V12.8398C24.0371 9.75725 22.9069 6.77469 20.8362 4.49097C18.7654 2.20725 15.9073 0.791436 12.8358 0.527798C11.1215 0.407856 9.40137 0.657538 7.79188 1.25995C6.18238 1.86236 4.72105 2.80345 3.50675 4.01955C2.29246 5.23564 1.35354 6.69836 0.753514 8.30875C0.153488 9.91914 -0.093644 11.6396 0.0288396 13.3538C0.47084 19.7078 6.08184 24.4998 13.0828 24.4998H18.9998C20.3254 24.4982 21.5963 23.9709 22.5336 23.0336C23.471 22.0962 23.9983 20.8254 23.9998 19.4998ZM12.6998 2.5238C15.2663 2.75084 17.6518 3.94071 19.3769 5.85435C21.1021 7.768 22.0392 10.2636 21.9998 12.8398V19.4998C21.9998 20.2955 21.6838 21.0585 21.1212 21.6211C20.5586 22.1837 19.7955 22.4998 18.9998 22.4998H13.0828C7.04884 22.4998 2.39984 18.5998 2.02484 13.2158C1.92639 11.8444 2.11181 10.4674 2.56952 9.17087C3.02723 7.87434 3.74739 6.68613 4.68501 5.68047C5.62263 4.67481 6.75757 3.87331 8.01891 3.32605C9.28025 2.77878 10.6409 2.49751 12.0158 2.4998C12.2428 2.4998 12.4718 2.5088 12.6998 2.5238Z" fill="#FF6245"/>
</g>
<defs>
<clipPath id="clip0_106_1245">
<rect width="24" height="24" fill="white" transform="translate(0 0.5)"/>
</clipPath>
</defs>
</svg>
