<svg width="19" height="20" viewBox="0 0 19 20" fill="none" xmlns="http://www.w3.org/2000/svg">
<g clip-path="url(#clip0_106_1291)">
<path d="M18.9841 1.68601V5.01934C18.9841 5.24036 18.9007 5.45232 18.7522 5.6086C18.6037 5.76488 18.4024 5.85268 18.1924 5.85268C17.9824 5.85268 17.7811 5.76488 17.6326 5.6086C17.4841 5.45232 17.4007 5.24036 17.4007 5.01934V2.88351L13.2049 7.27684C13.0552 7.42826 12.855 7.51171 12.6474 7.50922C12.4398 7.50672 12.2414 7.41849 12.095 7.26352C11.9486 7.10856 11.8659 6.89926 11.8647 6.68072C11.8636 6.46219 11.944 6.25191 12.0887 6.09518L16.3003 1.68601H14.2341C14.0241 1.68601 13.8227 1.59821 13.6743 1.44193C13.5258 1.28565 13.4424 1.07369 13.4424 0.852678C13.4424 0.631665 13.5258 0.419703 13.6743 0.263423C13.8227 0.107142 14.0241 0.019345 14.2341 0.019345H17.4007C17.8207 0.019345 18.2234 0.19494 18.5203 0.5075C18.8173 0.820061 18.9841 1.24398 18.9841 1.68601ZM18.2676 13.9685C18.7264 14.4528 18.984 15.1088 18.984 15.7927C18.984 16.4766 18.7264 17.1326 18.2676 17.6168L17.5456 18.4918C11.0611 25.0235 -4.71606 8.42101 1.39561 1.57518L2.30523 0.741845C2.76606 0.272487 3.38375 0.0127291 4.02496 0.0186539C4.66616 0.0245786 5.27943 0.295711 5.73236 0.773512C5.75611 0.799345 7.22307 2.80601 7.22307 2.80601C7.65822 3.28722 7.90053 3.9264 7.89964 4.59076C7.89876 5.25513 7.65475 5.89359 7.21832 6.37351L6.30078 7.58768C6.80811 8.88527 7.55403 10.0645 8.49568 11.0578C9.43732 12.051 10.5561 12.8385 11.7878 13.3752L12.9476 12.4043C13.4035 11.9452 14.0099 11.6885 14.6408 11.6876C15.2718 11.6866 15.8788 11.9415 16.3359 12.3993C16.3359 12.3993 18.2431 13.9435 18.2676 13.9685ZM17.1791 15.1802C17.1791 15.1802 15.2846 13.6452 15.2601 13.6202C15.097 13.45 14.8766 13.3544 14.6469 13.3544C14.4172 13.3544 14.1969 13.45 14.0338 13.6202C14.0124 13.6418 12.4156 14.9818 12.4156 14.9818C12.308 15.072 12.1799 15.1311 12.044 15.1533C11.9081 15.1755 11.7691 15.1601 11.6406 15.1085C10.0439 14.4835 8.59374 13.5043 7.38841 12.2372C6.18307 10.9702 5.25081 9.44498 4.6549 7.76518C4.60277 7.62861 4.58593 7.47995 4.60609 7.3343C4.62625 7.18866 4.6827 7.05124 4.76969 6.93601C4.76969 6.93601 6.0419 5.25518 6.06328 5.23268C6.22499 5.061 6.31572 4.82902 6.31572 4.58726C6.31572 4.3455 6.22499 4.11352 6.06328 3.94184C6.03953 3.91684 4.58128 1.92184 4.58128 1.92184C4.41584 1.76549 4.19985 1.68167 3.97759 1.68756C3.75532 1.69344 3.54362 1.7886 3.38586 1.95351L2.47623 2.78684C-1.99193 8.43851 11.6825 22.0352 16.3874 17.3552L17.1094 16.4802C17.2796 16.3158 17.3821 16.0879 17.3952 15.8451C17.4082 15.6023 17.3306 15.3637 17.1791 15.1802Z" fill="#404040"/>
<path d="M18.9841 1.68601V5.01934C18.9841 5.24036 18.9007 5.45232 18.7522 5.6086C18.6037 5.76488 18.4024 5.85268 18.1924 5.85268C17.9824 5.85268 17.7811 5.76488 17.6326 5.6086C17.4841 5.45232 17.4007 5.24036 17.4007 5.01934V2.88351L13.2049 7.27684C13.0552 7.42826 12.855 7.51171 12.6474 7.50922C12.4398 7.50672 12.2414 7.41849 12.095 7.26352C11.9486 7.10856 11.8659 6.89926 11.8647 6.68072C11.8636 6.46219 11.944 6.25191 12.0887 6.09518L16.3003 1.68601H14.2341C14.0241 1.68601 13.8227 1.59821 13.6743 1.44193C13.5258 1.28565 13.4424 1.07369 13.4424 0.852678C13.4424 0.631665 13.5258 0.419703 13.6743 0.263423C13.8227 0.107142 14.0241 0.019345 14.2341 0.019345H17.4007C17.8207 0.019345 18.2234 0.19494 18.5203 0.5075C18.8173 0.820061 18.9841 1.24398 18.9841 1.68601ZM18.2676 13.9685C18.7264 14.4528 18.984 15.1088 18.984 15.7927C18.984 16.4766 18.7264 17.1326 18.2676 17.6168L17.5456 18.4918C11.0611 25.0235 -4.71606 8.42101 1.39561 1.57518L2.30523 0.741845C2.76606 0.272487 3.38375 0.0127291 4.02496 0.0186539C4.66616 0.0245786 5.27943 0.295711 5.73236 0.773512C5.75611 0.799345 7.22307 2.80601 7.22307 2.80601C7.65822 3.28722 7.90053 3.9264 7.89964 4.59076C7.89876 5.25513 7.65475 5.89359 7.21832 6.37351L6.30078 7.58768C6.80811 8.88527 7.55403 10.0645 8.49568 11.0578C9.43732 12.051 10.5561 12.8385 11.7878 13.3752L12.9476 12.4043C13.4035 11.9452 14.0099 11.6885 14.6408 11.6876C15.2718 11.6866 15.8788 11.9415 16.3359 12.3993C16.3359 12.3993 18.2431 13.9435 18.2676 13.9685ZM17.1791 15.1802C17.1791 15.1802 15.2846 13.6452 15.2601 13.6202C15.097 13.45 14.8766 13.3544 14.6469 13.3544C14.4172 13.3544 14.1969 13.45 14.0338 13.6202C14.0124 13.6418 12.4156 14.9818 12.4156 14.9818C12.308 15.072 12.1799 15.1311 12.044 15.1533C11.9081 15.1755 11.7691 15.1601 11.6406 15.1085C10.0439 14.4835 8.59374 13.5043 7.38841 12.2372C6.18307 10.9702 5.25081 9.44498 4.6549 7.76518C4.60277 7.62861 4.58593 7.47995 4.60609 7.3343C4.62625 7.18866 4.6827 7.05124 4.76969 6.93601C4.76969 6.93601 6.0419 5.25518 6.06328 5.23268C6.22499 5.061 6.31572 4.82902 6.31572 4.58726C6.31572 4.3455 6.22499 4.11352 6.06328 3.94184C6.03953 3.91684 4.58128 1.92184 4.58128 1.92184C4.41584 1.76549 4.19985 1.68167 3.97759 1.68756C3.75532 1.69344 3.54362 1.7886 3.38586 1.95351L2.47623 2.78684C-1.99193 8.43851 11.6825 22.0352 16.3874 17.3552L17.1094 16.4802C17.2796 16.3158 17.3821 16.0879 17.3952 15.8451C17.4082 15.6023 17.3306 15.3637 17.1791 15.1802Z" fill="black" fill-opacity="0.2"/>
<path d="M18.9841 1.68601V5.01934C18.9841 5.24036 18.9007 5.45232 18.7522 5.6086C18.6037 5.76488 18.4024 5.85268 18.1924 5.85268C17.9824 5.85268 17.7811 5.76488 17.6326 5.6086C17.4841 5.45232 17.4007 5.24036 17.4007 5.01934V2.88351L13.2049 7.27684C13.0552 7.42826 12.855 7.51171 12.6474 7.50922C12.4398 7.50672 12.2414 7.41849 12.095 7.26352C11.9486 7.10856 11.8659 6.89926 11.8647 6.68072C11.8636 6.46219 11.944 6.25191 12.0887 6.09518L16.3003 1.68601H14.2341C14.0241 1.68601 13.8227 1.59821 13.6743 1.44193C13.5258 1.28565 13.4424 1.07369 13.4424 0.852678C13.4424 0.631665 13.5258 0.419703 13.6743 0.263423C13.8227 0.107142 14.0241 0.019345 14.2341 0.019345H17.4007C17.8207 0.019345 18.2234 0.19494 18.5203 0.5075C18.8173 0.820061 18.9841 1.24398 18.9841 1.68601ZM18.2676 13.9685C18.7264 14.4528 18.984 15.1088 18.984 15.7927C18.984 16.4766 18.7264 17.1326 18.2676 17.6168L17.5456 18.4918C11.0611 25.0235 -4.71606 8.42101 1.39561 1.57518L2.30523 0.741845C2.76606 0.272487 3.38375 0.0127291 4.02496 0.0186539C4.66616 0.0245786 5.27943 0.295711 5.73236 0.773512C5.75611 0.799345 7.22307 2.80601 7.22307 2.80601C7.65822 3.28722 7.90053 3.9264 7.89964 4.59076C7.89876 5.25513 7.65475 5.89359 7.21832 6.37351L6.30078 7.58768C6.80811 8.88527 7.55403 10.0645 8.49568 11.0578C9.43732 12.051 10.5561 12.8385 11.7878 13.3752L12.9476 12.4043C13.4035 11.9452 14.0099 11.6885 14.6408 11.6876C15.2718 11.6866 15.8788 11.9415 16.3359 12.3993C16.3359 12.3993 18.2431 13.9435 18.2676 13.9685ZM17.1791 15.1802C17.1791 15.1802 15.2846 13.6452 15.2601 13.6202C15.097 13.45 14.8766 13.3544 14.6469 13.3544C14.4172 13.3544 14.1969 13.45 14.0338 13.6202C14.0124 13.6418 12.4156 14.9818 12.4156 14.9818C12.308 15.072 12.1799 15.1311 12.044 15.1533C11.9081 15.1755 11.7691 15.1601 11.6406 15.1085C10.0439 14.4835 8.59374 13.5043 7.38841 12.2372C6.18307 10.9702 5.25081 9.44498 4.6549 7.76518C4.60277 7.62861 4.58593 7.47995 4.60609 7.3343C4.62625 7.18866 4.6827 7.05124 4.76969 6.93601C4.76969 6.93601 6.0419 5.25518 6.06328 5.23268C6.22499 5.061 6.31572 4.82902 6.31572 4.58726C6.31572 4.3455 6.22499 4.11352 6.06328 3.94184C6.03953 3.91684 4.58128 1.92184 4.58128 1.92184C4.41584 1.76549 4.19985 1.68167 3.97759 1.68756C3.75532 1.69344 3.54362 1.7886 3.38586 1.95351L2.47623 2.78684C-1.99193 8.43851 11.6825 22.0352 16.3874 17.3552L17.1094 16.4802C17.2796 16.3158 17.3821 16.0879 17.3952 15.8451C17.4082 15.6023 17.3306 15.3637 17.1791 15.1802Z" fill="black" fill-opacity="0.2"/>
</g>
<defs>
<clipPath id="clip0_106_1291">
<rect width="19" height="20" fill="white"/>
</clipPath>
</defs>
</svg>
