<svg width="32" height="33" viewBox="0 0 32 33" fill="none" xmlns="http://www.w3.org/2000/svg">
<path d="M9 11.1115C9 9.25502 9.7375 7.47454 11.0503 6.16178C12.363 4.84903 14.1435 4.11153 16 4.11153C17.8565 4.11153 19.637 4.84903 20.9497 6.16178C22.2625 7.47454 23 9.25502 23 11.1115C23 11.3767 23.1054 11.6311 23.2929 11.8186C23.4804 12.0062 23.7348 12.1115 24 12.1115C24.2652 12.1115 24.5196 12.0062 24.7071 11.8186C24.8946 11.6311 25 11.3767 25 11.1115C24.9999 9.57666 24.6072 8.06733 23.8593 6.72699C23.1114 5.38665 22.0332 4.25985 20.7271 3.45368C19.421 2.64752 17.9304 2.18878 16.397 2.12107C14.8637 2.05336 13.3384 2.37893 11.9664 3.06683C10.5943 3.75473 9.42091 4.78211 8.5578 6.05131C7.69469 7.32051 7.17052 8.78936 7.0351 10.3182C6.89968 11.8471 7.15751 13.3852 7.7841 14.7864C8.41068 16.1875 9.38519 17.4052 10.615 18.3235C11.6696 19.1113 12.8841 19.6581 14.173 19.9255C14.352 20.3271 14.6584 20.6585 15.0448 20.8685C15.4311 21.0784 15.8759 21.1552 16.3102 21.0869C16.7446 21.0186 17.1443 20.8091 17.4476 20.4908C17.751 20.1725 17.9409 19.7631 17.9881 19.3259C18.0353 18.8888 17.9372 18.4482 17.7088 18.0725C17.4805 17.6967 17.1347 17.4067 16.7249 17.2473C16.3151 17.0878 15.8642 17.0679 15.442 17.1905C15.0197 17.3131 14.6497 17.5714 14.389 17.9255C12.8546 17.5627 11.4876 16.6924 10.5096 15.4557C9.53148 14.219 8.99957 12.6883 9 11.1115ZM10 11.1115C10.0004 10.0077 10.3053 8.92541 10.8811 7.9837C11.4569 7.04198 12.2813 6.27735 13.2637 5.77396C14.246 5.27056 15.3482 5.0479 16.4489 5.13048C17.5496 5.21306 18.6062 5.59768 19.5024 6.24202C20.3987 6.88636 21.0998 7.76544 21.5286 8.78253C21.9575 9.79963 22.0975 10.9153 21.9331 12.0068C21.7688 13.0983 21.3066 14.1234 20.5973 14.9691C19.888 15.8149 18.9592 16.4486 17.913 16.8005C17.375 16.3552 16.6984 16.1115 16 16.1115C15.273 16.1115 14.607 16.3705 14.087 16.8005C12.8958 16.3998 11.8604 15.6351 11.1271 14.6144C10.3938 13.5936 9.99955 12.3684 10 11.1115ZM16 7.11153C14.9391 7.11153 13.9217 7.53296 13.1716 8.2831C12.4214 9.03325 12 10.0507 12 11.1115C12 12.1724 12.4214 13.1898 13.1716 13.94C13.9217 14.6901 14.9391 15.1115 16 15.1115C17.0609 15.1115 18.0783 14.6901 18.8284 13.94C19.5786 13.1898 20 12.1724 20 11.1115C20 10.0507 19.5786 9.03325 18.8284 8.2831C18.0783 7.53296 17.0609 7.11153 16 7.11153ZM7.5 18.1115H8.859C9.66287 18.9328 10.6023 19.6094 11.636 20.1115H7.5C7.10218 20.1115 6.72064 20.2696 6.43934 20.5509C6.15804 20.8322 6 21.2137 6 21.6115V22.1115C6 23.5845 6.94 25.0605 8.759 26.2175C10.566 27.3675 13.123 28.1115 15.999 28.1115C18.877 28.1115 21.434 27.3675 23.241 26.2175C25.061 25.0615 26 23.5835 26 22.1115V21.6115C26 21.2137 25.842 20.8322 25.5607 20.5509C25.2794 20.2696 24.8978 20.1115 24.5 20.1115H18.83C19.0588 19.4645 19.0588 18.7586 18.83 18.1115H24.5C25.4283 18.1115 26.3185 18.4803 26.9749 19.1367C27.6313 19.793 28 20.6833 28 21.6115V22.1115C28 24.5045 26.477 26.5285 24.315 27.9045C22.141 29.2885 19.198 30.1115 16 30.1115C12.802 30.1115 9.86 29.2885 7.685 27.9045C5.523 26.5285 4 24.5045 4 22.1115V21.6115C4 20.6833 4.36875 19.793 5.02513 19.1367C5.6815 18.4803 6.57174 18.1115 7.5 18.1115Z" fill="#FF6245"/>
</svg>
