<svg width="32" height="32" viewBox="0 0 32 32" fill="none" xmlns="http://www.w3.org/2000/svg">
<path d="M16 4.00012L16.3933 3.08012C16.269 3.02693 16.1352 2.99951 16 2.99951C15.8648 2.99951 15.731 3.02693 15.6067 3.08012L16 4.00012ZM16 28.0001L15.504 28.8681C15.6551 28.9544 15.826 28.9998 16 28.9998C16.174 28.9998 16.3449 28.9544 16.496 28.8681L16 28.0001ZM15.6053 3.08145L7.08266 6.73345L7.86666 8.57345L16.392 4.92012L15.6053 3.08145ZM5.66666 8.87878V18.0254H7.66666V8.87878H5.66666ZM10.2013 25.8388L15.504 28.8681L16.496 27.1321L11.1933 24.1014L10.2013 25.8388ZM16.496 28.8681L21.7987 25.8388L20.8067 24.1014L15.504 27.1321L16.496 28.8681ZM26.3333 18.0241V8.88012H24.3333V18.0268L26.3333 18.0241ZM24.92 6.73478L16.3933 3.08145L15.6067 4.91878L24.132 8.57345L24.92 6.73478ZM26.3333 8.88012C26.3333 7.94678 25.7773 7.10278 24.92 6.73478L24.132 8.57345C24.1919 8.59927 24.2429 8.64209 24.2786 8.69659C24.3144 8.7511 24.3334 8.81491 24.3333 8.88012H26.3333ZM21.7987 25.8388C23.1761 25.0517 24.321 23.9144 25.1173 22.5423C25.9137 21.1702 26.3332 19.6119 26.3333 18.0254H24.3333C24.3331 19.2592 24.0067 20.4709 23.3874 21.5379C22.7681 22.6049 21.8778 23.4893 20.8067 24.1014L21.7987 25.8388ZM5.66666 18.0254C5.6668 19.6119 6.0863 21.1702 6.88264 22.5423C7.67899 23.9144 8.82389 25.0517 10.2013 25.8388L11.1933 24.1014C10.122 23.4892 9.23155 22.6046 8.61222 21.5373C7.99289 20.4701 7.66669 19.2581 7.66666 18.0241L5.66666 18.0254ZM7.07999 6.73345C6.66053 6.91341 6.30307 7.21245 6.05186 7.59354C5.80064 7.97462 5.66672 8.42235 5.66666 8.87878H7.66666C7.66666 8.74545 7.74666 8.62412 7.86932 8.57078L7.07999 6.73345Z" fill="#FF6245"/>
<path d="M20 13.3335L14.6667 18.6668L12 16.0002" stroke="#FF6245" stroke-width="1.5" stroke-linecap="round" stroke-linejoin="round"/>
</svg>
