<svg width="40" height="40" viewBox="0 0 40 40" fill="none" xmlns="http://www.w3.org/2000/svg">
<path d="M6.25 17.5L9.20156 10.6133C9.68203 9.49219 10.9063 8.75 12.2742 8.75H27.7258C29.0938 8.75 30.318 9.49219 30.7984 10.6133L33.75 17.5M6.25 17.5H33.75M6.25 17.5V28.75M33.75 17.5V28.75M33.75 28.75H6.25M33.75 28.75V31.25H31.25V28.75M6.25 28.75V31.25H8.75V28.75" stroke="#FF6245" stroke-width="2" stroke-linecap="round" stroke-linejoin="round"/>
<path d="M11.25 23.75C11.9404 23.75 12.5 23.1904 12.5 22.5C12.5 21.8096 11.9404 21.25 11.25 21.25C10.5596 21.25 10 21.8096 10 22.5C10 23.1904 10.5596 23.75 11.25 23.75Z" stroke="#FF6245" stroke-width="2" stroke-linecap="round" stroke-linejoin="round"/>
<path d="M28.75 23.75C29.4404 23.75 30 23.1904 30 22.5C30 21.8096 29.4404 21.25 28.75 21.25C28.0596 21.25 27.5 21.8096 27.5 22.5C27.5 23.1904 28.0596 23.75 28.75 23.75Z" stroke="#FF6245" stroke-width="2" stroke-linecap="round" stroke-linejoin="round"/>
</svg>
