<svg width="32" height="33" viewBox="0 0 32 33" fill="none" xmlns="http://www.w3.org/2000/svg">
<path d="M9.33333 22.7783L13.6 13.7117L22.6667 9.44499L18.4 18.5117L9.33333 22.7783ZM16 14.9117C15.6817 14.9117 15.3765 15.0381 15.1515 15.2631C14.9264 15.4882 14.8 15.7934 14.8 16.1117C14.8 16.4299 14.9264 16.7351 15.1515 16.9602C15.3765 17.1852 15.6817 17.3117 16 17.3117C16.3183 17.3117 16.6235 17.1852 16.8485 16.9602C17.0736 16.7351 17.2 16.4299 17.2 16.1117C17.2 15.7934 17.0736 15.4882 16.8485 15.2631C16.6235 15.0381 16.3183 14.9117 16 14.9117ZM16 2.77832C17.751 2.77832 19.4848 3.1232 21.1024 3.79326C22.7201 4.46332 24.19 5.44545 25.4281 6.68356C26.6662 7.92168 27.6483 9.39153 28.3184 11.0092C28.9885 12.6269 29.3333 14.3607 29.3333 16.1117C29.3333 19.6479 27.9286 23.0393 25.4281 25.5397C22.9276 28.0402 19.5362 29.445 16 29.445C14.249 29.445 12.5152 29.1001 10.8976 28.43C9.27988 27.76 7.81002 26.7779 6.57191 25.5397C4.07142 23.0393 2.66666 19.6479 2.66666 16.1117C2.66666 12.5754 4.07142 9.18405 6.57191 6.68356C9.07239 4.18308 12.4638 2.77832 16 2.77832ZM16 5.44499C13.171 5.44499 10.4579 6.56879 8.45753 8.56918C6.45714 10.5696 5.33333 13.2827 5.33333 16.1117C5.33333 18.9406 6.45714 21.6537 8.45753 23.6541C10.4579 25.6545 13.171 26.7783 16 26.7783C18.829 26.7783 21.5421 25.6545 23.5425 23.6541C25.5429 21.6537 26.6667 18.9406 26.6667 16.1117C26.6667 13.2827 25.5429 10.5696 23.5425 8.56918C21.5421 6.56879 18.829 5.44499 16 5.44499Z" fill="#FF6245"/>
</svg>
