<svg width="54" height="54" viewBox="0 0 54 54" fill="none" xmlns="http://www.w3.org/2000/svg">
<path d="M15.6625 17.4375C15.6625 20.2818 17.9682 22.5875 20.8125 22.5875V25.7875C16.2009 25.7875 12.4625 22.0491 12.4625 17.4375H15.6625ZM20.8125 22.5875C23.6568 22.5875 25.9625 20.2818 25.9625 17.4375H29.1625C29.1625 22.0491 25.4241 25.7875 20.8125 25.7875V22.5875ZM25.9625 17.4375C25.9625 14.5932 23.6568 12.2875 20.8125 12.2875V9.0875C25.4241 9.0875 29.1625 12.8259 29.1625 17.4375H25.9625ZM20.8125 12.2875C17.9682 12.2875 15.6625 14.5932 15.6625 17.4375H12.4625C12.4625 12.8259 16.2009 9.0875 20.8125 9.0875V12.2875ZM27.5625 32.5375H14.0625V29.3375H27.5625V32.5375ZM14.0625 42.8375H27.5625V46.0375H14.0625V42.8375ZM27.5625 42.8375C30.4068 42.8375 32.7125 40.5318 32.7125 37.6875H35.9125C35.9125 42.2991 32.1741 46.0375 27.5625 46.0375V42.8375ZM8.9125 37.6875C8.9125 40.5318 11.2182 42.8375 14.0625 42.8375V46.0375C9.45092 46.0375 5.7125 42.2991 5.7125 37.6875H8.9125ZM14.0625 32.5375C11.2182 32.5375 8.9125 34.8432 8.9125 37.6875H5.7125C5.7125 33.0759 9.45092 29.3375 14.0625 29.3375V32.5375ZM27.5625 29.3375C32.1741 29.3375 35.9125 33.0759 35.9125 37.6875H32.7125C32.7125 34.8432 30.4068 32.5375 27.5625 32.5375V29.3375Z" fill="#FF6245"/>
<path d="M30.3702 23.3745C30.7251 22.8044 31.391 22.5 32.0625 22.5C34.8584 22.5 37.125 20.2334 37.125 17.4375C37.125 14.6416 34.8584 12.375 32.0625 12.375C31.391 12.375 30.7251 12.0706 30.3702 11.5005C30.3545 11.4753 30.3387 11.4502 30.3228 11.4251C29.732 10.4924 30.0313 9.1719 31.1287 9.05108C31.4354 9.01733 31.7469 9 32.0625 9C36.7224 9 40.5 12.7776 40.5 17.4375C40.5 22.0974 36.7224 25.875 32.0625 25.875C31.7469 25.875 31.4354 25.8577 31.1287 25.8239C30.0313 25.7031 29.732 24.3826 30.3228 23.4499C30.3387 23.4248 30.3545 23.3997 30.3702 23.3745Z" fill="#FF6245"/>
<path d="M37.2189 41.213C37.4743 40.7868 37.9251 40.5 38.4219 40.5H38.8125C41.6084 40.5 43.875 38.2334 43.875 35.4375C43.875 32.6416 41.6084 30.375 38.8125 30.375H38.4219C37.9251 30.375 37.4743 30.0882 37.2189 29.662C36.5954 28.6219 37.272 27 38.4847 27H38.8125C43.4724 27 47.25 30.7776 47.25 35.4375C47.25 40.0974 43.4724 43.875 38.8125 43.875H38.4847C37.272 43.875 36.5954 42.2531 37.2189 41.213Z" fill="#FF6245"/>
</svg>
