<svg width="32" height="32" viewBox="0 0 32 32" fill="none" xmlns="http://www.w3.org/2000/svg">
<path fill-rule="evenodd" clip-rule="evenodd" d="M15.6 28.0001C17.2284 28.0001 18.8408 27.6794 20.3453 27.0562C21.8497 26.433 23.2167 25.5197 24.3681 24.3682C25.5195 23.2168 26.4329 21.8498 27.0561 20.3454C27.6792 18.8409 28 17.2285 28 15.6001C28 13.9717 27.6792 12.3593 27.0561 10.8548C26.4329 9.35039 25.5195 7.98342 24.3681 6.83197C23.2167 5.68053 21.8497 4.76715 20.3453 4.14399C18.8408 3.52083 17.2284 3.2001 15.6 3.2001C12.3113 3.2001 9.1573 4.50652 6.83185 6.83197C4.5064 9.15742 3.19998 12.3114 3.19998 15.6001C3.19998 18.8888 4.5064 22.0428 6.83185 24.3682C9.1573 26.6937 12.3113 28.0001 15.6 28.0001ZM15.6 29.6001C19.313 29.6001 22.874 28.1251 25.4995 25.4996C28.125 22.8741 29.6 19.3131 29.6 15.6001C29.6 11.8871 28.125 8.32611 25.4995 5.7006C22.874 3.07509 19.313 1.6001 15.6 1.6001C11.8869 1.6001 8.32599 3.07509 5.70048 5.7006C3.07497 8.32611 1.59998 11.8871 1.59998 15.6001C1.59998 19.3131 3.07497 22.8741 5.70048 25.4996C8.32599 28.1251 11.8869 29.6001 15.6 29.6001Z" fill="#FF6245"/>
<path fill-rule="evenodd" clip-rule="evenodd" d="M10.7936 18.8207C10.6896 18.6168 10.5104 18.4614 10.2937 18.3875C10.0771 18.3136 9.84026 18.3269 9.63335 18.4248C9.42644 18.5226 9.26579 18.6972 9.18548 18.9115C9.10516 19.1258 9.11151 19.363 9.20316 19.5727V19.5759L9.20476 19.5775L9.20796 19.5823L9.21436 19.5983C9.24219 19.6584 9.27372 19.7166 9.30876 19.7727C9.68878 20.4135 10.1727 20.9867 10.7408 21.4687C11.8224 22.3919 13.52 23.2799 16 23.2799C18.48 23.2799 20.1776 22.3919 21.2592 21.4687C21.6954 21.0972 22.0834 20.6725 22.4144 20.2047C22.553 20.0115 22.6771 19.8083 22.7856 19.5967L22.792 19.5823L22.7952 19.5775V19.5759C22.7952 19.5759 22.7968 19.5727 22 19.1999L22.7968 19.5727C22.8884 19.363 22.8948 19.1258 22.8144 18.9115C22.7341 18.6972 22.5735 18.5226 22.3666 18.4248C22.1597 18.3269 21.9228 18.3136 21.7062 18.3875C21.4896 18.4614 21.3103 18.6168 21.2064 18.8207L21.2 18.8319L21.1616 18.9023C21.1248 18.9663 21.064 19.0687 20.976 19.1935C20.8 19.4447 20.52 19.7855 20.1168 20.1311C19.3216 20.8079 18.0208 21.5199 16 21.5199C13.9792 21.5199 12.6784 20.8079 11.8832 20.1311C11.5589 19.8555 11.2703 19.5406 11.024 19.1935C10.9414 19.0781 10.8665 18.9573 10.8 18.8319L10.7936 18.8207Z" fill="#FF6245"/>
<path d="M13.6 11.6001C13.6 12.1305 13.3893 12.6392 13.0142 13.0143C12.6391 13.3894 12.1304 13.6001 11.6 13.6001C11.0695 13.6001 10.5608 13.3894 10.1858 13.0143C9.81069 12.6392 9.59998 12.1305 9.59998 11.6001C9.59998 11.0697 9.81069 10.561 10.1858 10.1859C10.5608 9.81081 11.0695 9.6001 11.6 9.6001C12.1304 9.6001 12.6391 9.81081 13.0142 10.1859C13.3893 10.561 13.6 11.0697 13.6 11.6001ZM22.4 11.6001C22.4 12.1305 22.1893 12.6392 21.8142 13.0143C21.4391 13.3894 20.9304 13.6001 20.4 13.6001C19.8695 13.6001 19.3608 13.3894 18.9858 13.0143C18.6107 12.6392 18.4 12.1305 18.4 11.6001C18.4 11.0697 18.6107 10.561 18.9858 10.1859C19.3608 9.81081 19.8695 9.6001 20.4 9.6001C20.9304 9.6001 21.4391 9.81081 21.8142 10.1859C22.1893 10.561 22.4 11.0697 22.4 11.6001Z" fill="#FF6245"/>
</svg>
