<svg width="32" height="33" viewBox="0 0 32 33" fill="none" xmlns="http://www.w3.org/2000/svg">
<path fill-rule="evenodd" clip-rule="evenodd" d="M16 14.1C16.8487 14.1 17.6626 13.7629 18.2627 13.1628C18.8628 12.5626 19.2 11.7487 19.2 10.9C19.2 10.0513 18.8628 9.23739 18.2627 8.63727C17.6626 8.03715 16.8487 7.70001 16 7.70001C15.1513 7.70001 14.3374 8.03715 13.7372 8.63727C13.1371 9.23739 12.8 10.0513 12.8 10.9C12.8 11.7487 13.1371 12.5626 13.7372 13.1628C14.3374 13.7629 15.1513 14.1 16 14.1ZM16 9.30001C16.4243 9.30001 16.8313 9.46858 17.1314 9.76864C17.4314 10.0687 17.6 10.4757 17.6 10.9C17.6 11.3244 17.4314 11.7313 17.1314 12.0314C16.8313 12.3314 16.4243 12.5 16 12.5C15.5756 12.5 15.1687 12.3314 14.8686 12.0314C14.5686 11.7313 14.4 11.3244 14.4 10.9C14.4 10.4757 14.5686 10.0687 14.8686 9.76864C15.1687 9.46858 15.5756 9.30001 16 9.30001Z" fill="#FF6245"/>
<path fill-rule="evenodd" clip-rule="evenodd" d="M8.79999 10.5576C8.79999 14.8344 13.0448 22.1 16 22.1C18.9568 22.1 23.2 14.8344 23.2 10.5576C23.2 6.34002 19.9888 2.90002 16 2.90002C12.0112 2.90002 8.79999 6.34002 8.79999 10.5576ZM21.6 10.5576C21.6 14.0664 17.8432 20.5 16 20.5C14.1584 20.5 10.4 14.068 10.4 10.5576C10.4 7.19922 12.92 4.50002 16 4.50002C19.08 4.50002 21.6 7.19922 21.6 10.5576Z" fill="#FF6245"/>
<path d="M21.496 15.1241C21.3047 15.0417 21.153 14.8881 21.0732 14.6957C20.9934 14.5033 20.9918 14.2874 21.0687 14.0939C21.1456 13.9003 21.2949 13.7444 21.4849 13.6592C21.675 13.574 21.8907 13.5663 22.0864 13.6377C22.737 13.8957 23.3233 14.2929 23.8043 14.8015C24.2852 15.31 24.649 15.9176 24.8704 16.5816L27.0048 22.9816C27.2455 23.7035 27.3111 24.4722 27.1963 25.2243C27.0815 25.9765 26.7895 26.6906 26.3444 27.3078C25.8994 27.9249 25.3139 28.4274 24.6365 28.7738C23.959 29.1202 23.2089 29.3006 22.448 29.3H9.55198C8.79136 29.3001 8.04162 29.1193 7.36457 28.7727C6.68751 28.4261 6.10251 27.9235 5.6578 27.3065C5.21309 26.6894 4.92138 25.9755 4.80673 25.2236C4.69208 24.4716 4.75777 23.7032 4.99838 22.9816L7.13118 16.5816C7.35639 15.9057 7.72924 15.2884 8.22267 14.7745C8.71611 14.2606 9.31777 13.8629 9.98398 13.6104C10.0822 13.5732 10.1868 13.5556 10.2918 13.5587C10.3969 13.5618 10.5002 13.5856 10.5961 13.6287C10.6919 13.6718 10.7783 13.7333 10.8504 13.8098C10.9224 13.8863 10.9787 13.9762 11.016 14.0744C11.0533 14.1727 11.0709 14.2773 11.0677 14.3823C11.0646 14.4873 11.0408 14.5907 10.9977 14.6865C10.9546 14.7824 10.8931 14.8688 10.8166 14.9408C10.7401 15.0129 10.6502 15.0692 10.552 15.1064C10.1073 15.2747 9.70565 15.5399 9.37629 15.8828C9.04694 16.2257 8.79814 16.6377 8.64798 17.0888L6.51518 23.4889C6.35496 23.9699 6.31134 24.4822 6.38793 24.9834C6.46451 25.4846 6.65911 25.9605 6.95569 26.3717C7.25226 26.783 7.64232 27.1179 8.09372 27.3489C8.54512 27.5798 9.04494 27.7002 9.55198 27.7001H22.4512C22.9583 27.7 23.4581 27.5794 23.9095 27.3483C24.3608 27.1172 24.7508 26.7821 25.0472 26.3706C25.3436 25.9592 25.538 25.4832 25.6144 24.9819C25.6908 24.4806 25.6469 23.9683 25.4864 23.4873L23.3552 17.0872C23.2075 16.6448 22.9648 16.2399 22.6442 15.9011C22.3236 15.5622 21.9328 15.2976 21.4992 15.1256" fill="#FF6245"/>
</svg>
