<svg width="32" height="32" viewBox="0 0 32 32" fill="none" xmlns="http://www.w3.org/2000/svg">
<path d="M13.6507 6.01608C13.6507 5.393 13.8982 4.79544 14.3388 4.35485C14.7794 3.91427 15.3769 3.66675 16 3.66675C16.6231 3.66675 17.2207 3.91427 17.6613 4.35485C18.1018 4.79544 18.3494 5.393 18.3494 6.01608V11.8667L27.3267 16.5801C27.5418 16.6931 27.722 16.8627 27.8477 17.0707C27.9735 17.2787 28.0399 17.5171 28.04 17.7601V18.3347C28.0401 18.4525 28.0142 18.5689 27.9642 18.6755C27.9141 18.7821 27.8412 18.8763 27.7505 18.9515C27.6598 19.0266 27.5536 19.0808 27.4396 19.1102C27.3255 19.1396 27.2064 19.1434 27.0907 19.1214L18.3494 17.4681V22.9441C18.3491 23.0891 18.3883 23.2315 18.4628 23.356C18.5372 23.4804 18.6441 23.5823 18.772 23.6507L21.2547 24.9787C21.5737 25.1495 21.8404 25.4037 22.0264 25.7141C22.2123 26.0245 22.3106 26.3796 22.3107 26.7414V27.3374C22.3107 27.4572 22.2839 27.5755 22.2321 27.6835C22.1803 27.7916 22.1049 27.8866 22.0115 27.9616C21.9181 28.0366 21.809 28.0897 21.6923 28.1169C21.5756 28.1441 21.4543 28.1447 21.3374 28.1187L16 26.9387L10.6627 28.1187C10.5457 28.1447 10.4244 28.1441 10.3077 28.1169C10.1911 28.0897 10.082 28.0366 9.98856 27.9616C9.89513 27.8866 9.81974 27.7916 9.76795 27.6835C9.71616 27.5755 9.68931 27.4572 9.68936 27.3374V26.7414C9.68945 26.3796 9.78772 26.0245 9.97368 25.7141C10.1596 25.4037 10.4263 25.1495 10.7454 24.9787L13.228 23.6494C13.3557 23.5811 13.4625 23.4794 13.5369 23.3552C13.6113 23.231 13.6507 23.0889 13.6507 22.9441V17.4694L4.90936 19.1201C4.79365 19.1421 4.67452 19.1382 4.56047 19.1089C4.44642 19.0795 4.34026 19.0253 4.24958 18.9501C4.15889 18.875 4.08592 18.7807 4.03587 18.6741C3.98581 18.5675 3.95992 18.4512 3.96002 18.3334V17.7601C3.95985 17.5168 4.02623 17.2782 4.15197 17.07C4.2777 16.8617 4.45801 16.6919 4.67336 16.5787L13.6507 11.8667V6.01608Z" stroke="#FF6245" stroke-width="2" stroke-linecap="round" stroke-linejoin="round"/>
</svg>
