<svg width="32" height="32" viewBox="0 0 32 32" fill="none" xmlns="http://www.w3.org/2000/svg">
<path d="M12 8.852V27.3333M20 4V22.6667M4 11.6133C4 9.648 4 8.66667 4.524 8.09333C4.70945 7.88938 4.93506 7.72596 5.18667 7.61333C5.896 7.29867 6.828 7.60933 8.692 8.23067C10.1147 8.70533 10.8253 8.94267 11.5453 8.91733C11.8095 8.90865 12.0721 8.87381 12.3293 8.81333C13.0293 8.64667 13.6533 8.23067 14.9013 7.4L16.744 6.17067C18.344 5.104 19.1427 4.57067 20.06 4.44933C20.9773 4.32533 21.8893 4.62933 23.712 5.23733L25.2653 5.75467C26.5853 6.19467 27.2453 6.41467 27.6227 6.93867C28 7.46267 28 8.16 28 9.54933V20.388C28 22.352 28 23.3347 27.476 23.908C27.2903 24.111 27.0647 24.2735 26.8133 24.3853C26.104 24.7013 25.172 24.3907 23.308 23.7693C21.8853 23.2947 21.1747 23.0573 20.4547 23.0827C20.1905 23.0914 19.9279 23.1262 19.6707 23.1867C18.9707 23.3533 18.3467 23.7693 17.0987 24.6L15.256 25.8293C13.656 26.896 12.8573 27.4293 11.94 27.5507C11.0227 27.6747 10.1107 27.3707 8.288 26.7627L6.73467 26.2453C5.41467 25.8053 4.75467 25.5853 4.37733 25.0613C4 24.5373 4 23.84 4 22.4507V11.6133Z" stroke="#FF6245" stroke-width="2"/>
</svg>
