<svg width="32" height="32" viewBox="0 0 32 32" fill="none" xmlns="http://www.w3.org/2000/svg">
<path fill-rule="evenodd" clip-rule="evenodd" d="M7.64402 2.72423C9.26668 1.1109 11.9387 1.39757 13.2973 3.21357L14.98 5.4589C16.0867 6.93623 15.988 9.00023 14.6747 10.3056L14.3573 10.6229C14.3214 10.7561 14.3177 10.896 14.3467 11.0309C14.4307 11.5749 14.8853 12.7269 16.7893 14.6202C18.6933 16.5136 19.8533 16.9669 20.4053 17.0522C20.5444 17.0802 20.6881 17.0761 20.8253 17.0402L21.3694 16.4989C22.5373 15.3389 24.3293 15.1216 25.7747 15.9069L28.3213 17.2936C30.504 18.4776 31.0547 21.4429 29.268 23.2202L27.3734 25.1029C26.776 25.6962 25.9734 26.1909 24.9947 26.2829C22.5814 26.5082 16.9587 26.2202 11.048 20.3442C5.53202 14.8589 4.47335 10.0749 4.33868 7.71757C4.27202 6.52557 4.83468 5.51757 5.55202 4.80557L7.64402 2.72423ZM11.6973 4.41223C11.0213 3.50957 9.76268 3.43757 9.05335 4.1429L6.96002 6.2229C6.52002 6.66023 6.30935 7.1429 6.33602 7.60423C6.44268 9.47757 7.29602 13.7936 12.4587 18.9269C17.8747 24.3109 22.876 24.4722 24.8093 24.2909C25.204 24.2549 25.596 24.0496 25.9627 23.6856L27.856 21.8016C28.6267 21.0362 28.4573 19.6416 27.3667 19.0496L24.82 17.6642C24.116 17.2829 23.292 17.4082 22.78 17.9176L22.1733 18.5216L21.4667 17.8122C22.1733 18.5216 22.172 18.5229 22.1707 18.5229L22.1693 18.5256L22.1653 18.5296L22.156 18.5376L22.136 18.5562C22.0798 18.6085 22.0191 18.6558 21.9547 18.6976C21.848 18.7682 21.7067 18.8469 21.5293 18.9122C21.1693 19.0469 20.692 19.1189 20.1027 19.0282C18.9467 18.8509 17.4147 18.0629 15.3787 16.0389C13.344 14.0149 12.5493 12.4922 12.3707 11.3376C12.2787 10.7482 12.352 10.2709 12.488 9.9109C12.5629 9.70832 12.67 9.51921 12.8053 9.3509L12.848 9.30423L12.8667 9.28423L12.8747 9.27623L12.8787 9.27223L12.8813 9.26957L13.2654 8.88823C13.836 8.3189 13.916 7.37623 13.3787 6.65757L11.6973 4.41223Z" fill="#FF6245"/>
</svg>
