<svg width="33" height="32" viewBox="0 0 33 32" fill="none" xmlns="http://www.w3.org/2000/svg">
<path fill-rule="evenodd" clip-rule="evenodd" d="M10.0476 5.33329H13.0952V26.6666H10.0476C9.23934 26.6666 8.46417 26.3455 7.89263 25.774C7.32109 25.2025 7 24.4273 7 23.619V8.38091C7 7.57263 7.32109 6.79745 7.89263 6.22591C8.46417 5.65437 9.23934 5.33329 10.0476 5.33329ZM17.2126 2.30548L23.3078 4.59119C23.8888 4.80899 24.3896 5.19897 24.743 5.70899C25.0965 6.21901 25.2858 6.82477 25.2857 7.44529V24.5546C25.2858 25.1751 25.0965 25.7809 24.743 26.2909C24.3896 26.8009 23.8888 27.1909 23.3078 27.4087L17.2126 29.6944C16.7515 29.8673 16.2553 29.9258 15.7667 29.865C15.278 29.8042 14.8113 29.6259 14.4066 29.3454C14.0019 29.0649 13.6712 28.6904 13.4428 28.2542C13.2144 27.8179 13.0952 27.3328 13.0952 26.8403V5.15957C13.0952 4.66713 13.2144 4.18202 13.4428 3.74574C13.6712 3.30947 14.0019 2.93504 14.4066 2.6545C14.8113 2.37396 15.278 2.19566 15.7667 2.13488C16.2553 2.0741 16.7515 2.13263 17.2126 2.30548Z" stroke="#FF6245" stroke-width="1.52381" stroke-linecap="round" stroke-linejoin="round"/>
<path d="M16.1429 17.5237C16.9844 17.5237 17.6667 16.8415 17.6667 15.9999C17.6667 15.1583 16.9844 14.4761 16.1429 14.4761C15.3013 14.4761 14.619 15.1583 14.619 15.9999C14.619 16.8415 15.3013 17.5237 16.1429 17.5237Z" fill="#FF6245"/>
</svg>
