<svg width="32" height="33" viewBox="0 0 32 33" fill="none" xmlns="http://www.w3.org/2000/svg">
<path d="M4 21.445C4 23.2131 4.70238 24.9088 5.95262 26.159C7.20286 27.4093 8.89856 28.1117 10.6667 28.1117C12.4348 28.1117 14.1305 27.4093 15.3807 26.159C16.631 24.9088 17.3333 23.2131 17.3333 21.445C17.3333 19.6769 16.631 17.9812 15.3807 16.7309C14.1305 15.4807 12.4348 14.7783 10.6667 14.7783C8.89856 14.7783 7.20286 15.4807 5.95262 16.7309C4.70238 17.9812 4 19.6769 4 21.445ZM22.6667 25.445C22.6667 26.1522 22.9476 26.8305 23.4477 27.3306C23.9478 27.8307 24.6261 28.1117 25.3333 28.1117C26.0406 28.1117 26.7189 27.8307 27.219 27.3306C27.719 26.8305 28 26.1522 28 25.445C28 24.7377 27.719 24.0595 27.219 23.5594C26.7189 23.0593 26.0406 22.7783 25.3333 22.7783C24.6261 22.7783 23.9478 23.0593 23.4477 23.5594C22.9476 24.0595 22.6667 24.7377 22.6667 25.445Z" stroke="#FF6245" stroke-width="2.66667" stroke-linecap="round" stroke-linejoin="round"/>
<path d="M25.3333 22.7782C25.3333 21.7174 24.9119 20.7 24.1618 19.9498C23.4116 19.1997 22.3942 18.7782 21.3333 18.7782H16.8M4 4.11157H5.33333C6.04058 4.11157 6.71885 4.39252 7.21895 4.89262C7.71905 5.39272 8 6.07099 8 6.77824V14.7782M8 10.7782H22.6667M20 10.7782V18.7782" stroke="#FF6245" stroke-width="2.66667" stroke-linecap="round" stroke-linejoin="round"/>
</svg>
